<?xml version="1.0" standalone="no"?>
<!DOCTYPE svg PUBLIC "-//W3C//DTD SVG 20010904//EN"
 "http://www.w3.org/TR/2001/REC-SVG-20010904/DTD/svg10.dtd">
<svg version="1.0" xmlns="http://www.w3.org/2000/svg"
 width="256.000000pt" height="256.000000pt" viewBox="0 0 256.000000 256.000000"
 preserveAspectRatio="xMidYMid meet">
<metadata>
Created by potrace 1.11, written by Peter Selinger 2001-2013
</metadata>
<g transform="translate(0.000000,256.000000) scale(0.100000,-0.100000)"
fill="#000000" stroke="none">
<path d="M1193 2183 c15 -2 39 -2 55 0 15 2 2 4 -28 4 -30 0 -43 -2 -27 -4z"/>
<path d="M1355 2180 c106 -13 190 -38 293 -86 92 -43 198 -111 188 -122 -3 -2
16 -29 43 -58 56 -63 134 -208 150 -279 18 -80 20 -95 15 -110 -8 -20 -17 -9
-92 102 -183 272 -388 393 -667 393 -169 0 -299 -41 -428 -134 -69 -50 -159
-135 -185 -175 -9 -14 -39 -55 -65 -91 -86 -115 -84 -113 -90 -96 -11 29 18
145 56 221 44 88 91 156 149 214 28 28 47 51 42 51 -14 0 45 38 116 74 72 37
147 63 230 82 30 6 44 12 30 13 -14 1 -58 -8 -98 -19 -314 -87 -551 -331 -638
-656 -28 -104 -25 -340 4 -448 31 -112 90 -227 165 -326 l65 -84 -72 -22
c-131 -39 -169 -61 -217 -127 -44 -61 -38 -123 18 -182 40 -44 74 -63 159 -91
149 -48 269 -58 744 -58 475 0 595 10 744 58 85 28 119 47 159 91 57 60 62
121 17 183 -16 23 -47 53 -67 66 -47 31 -190 79 -205 70 -6 -4 21 35 61 86 81
106 139 218 173 335 19 67 23 104 23 235 0 177 -16 253 -85 395 -136 282 -429
484 -725 500 l-80 4 70 -9z m103 -212 c52 -16 61 -22 52 -33 -32 -39 -417 -39
-459 0 -11 10 -4 16 39 30 116 39 250 40 368 3z m-381 -413 c35 -93 91 -243
123 -332 33 -89 67 -177 76 -195 l17 -32 18 37 c11 20 46 112 78 204 32 93 85
241 117 331 l59 162 52 0 53 0 -22 -57 c-76 -208 -153 -408 -204 -535 -47
-119 -63 -148 -78 -148 -11 0 -31 -14 -45 -31 -29 -34 -50 -32 -71 6 -7 14
-24 25 -39 27 -23 3 -33 21 -108 203 -46 110 -103 252 -127 315 -24 63 -54
139 -65 168 l-21 53 61 -3 62 -3 64 -170z"/>
</g>
</svg>
